PathFileType	4	(X/Y/Z)	D:\TRACE\spotREDO_2-26-24\spot_justBody_Motion_3_1-v60.trc
DataRate	CameraRate	NumFrames	NumMarkers	Units	OrigDataRate	OrigDataStartFrame	OrigNumFrames
100.00	100.00	      39	9	mm	100.00	3501	      7000
Frame#	Time	front left toe			Front right toe			aft left toe			aft right toe			Arm			FL body			FR body			AL Body			AR Body			
		X1	Y1	Z1	X2	Y2	Z2	X3	Y3	Z3	X4	Y4	Z4	X5	Y5	Z5	X6	Y6	Z6	X7	Y7	Z7	X8	Y8	Z8	X9	Y9	Z9	

3501	35.000	-177.76677	29.82434	-141.56432	321.09476	28.46208	-118.17126	-82.83907	12.52016	193.15778	246.98003	6.08619	300.49002	49.27184	815.40399	-378.19247	-30.01925	555.27881	-349.87799	125.52712	560.89594	-367.99808	65.77269	552.87177	528.73877	206.30762	558.31250	514.57391	
3502	35.010	-178.86978	30.13391	-141.56790	320.21802	28.48641	-118.26225	-83.39716	12.53519	193.13251	246.04141	6.05518	300.34845	48.21466	815.68079	-378.26761	-30.73596	555.41022	-349.67645	124.62622	561.05219	-368.05142	65.37777	552.78741	528.86432	205.93285	558.34131	514.64117	
3503	35.020	-179.18401	29.95638	-141.49471	319.22095	28.55380	-118.17799	-83.95970	12.43627	193.12225	245.34464	5.94507	300.41360	46.88486	815.80872	-377.87686	-31.97289	555.63806	-349.51312	123.51042	560.88306	-367.50739	64.91360	552.69031	529.10712	205.54863	558.25122	514.72986	
3504	35.030	-179.85101	29.97500	-141.37727	318.59628	28.57717	-118.47806	-85.03578	12.35339	193.23360	244.84061	5.96594	300.48151	45.64619	816.06866	-377.66605	-33.53803	556.00220	-349.81677	122.44926	561.04773	-367.36005	64.54115	552.55414	529.24969	205.33543	558.04144	514.74591	
3505	35.040	-180.77991	29.80856	-141.26729	318.21460	28.57173	-118.47908	-85.66109	12.29826	193.38023	244.05167	5.83886	300.35233	44.75786	816.14038	-377.45551	-34.24197	555.78705	-349.25763	121.28571	561.07574	-367.40802	64.24589	552.39288	529.33795	204.76706	557.86310	514.53076	
3506	35.050	-181.27927	29.72259	-141.22986	317.06985	28.45786	-118.65879	-86.16942	12.34842	193.32043	243.27547	5.90959	300.39304	43.41550	816.24023	-377.21210	-35.56466	555.96759	-349.01715	120.16351	561.24292	-367.34866	63.85149	552.19019	529.33441	204.32918	557.65729	514.45880	
3507	35.060	-182.28687	29.76872	-141.15843	316.46353	28.43540	-118.67800	-86.98518	12.44613	193.31934	242.69717	5.82769	300.43576	42.36049	816.43805	-377.10980	-36.64301	556.11365	-348.89279	118.77644	561.78870	-367.75037	63.52277	552.01202	529.42004	203.89081	557.53754	514.43048	
3508	35.070	-182.90848	29.82711	-141.16847	315.79080	28.49479	-118.82988	-87.77482	12.46963	193.46976	242.04153	5.87703	300.43686	40.98508	816.63861	-377.01520	-37.57993	556.16663	-348.68033	117.62377	561.85419	-367.60220	63.21342	551.85657	529.49548	203.59047	557.40698	514.28510	
3509	35.080	-183.50214	29.80764	-141.05946	314.76871	28.52487	-118.72938	-88.43393	12.34478	193.68913	241.09991	6.03536	300.29236	39.90493	816.89606	-376.82758	-39.35120	556.69379	-348.89969	116.37415	562.09027	-367.74500	62.90471	551.71637	529.69067	203.18344	557.38647	514.15582	
3510	35.090	-184.66771	29.94026	-141.14641	314.03137	28.43773	-118.79768	-89.29455	12.27266	193.72945	240.29225	5.97922	300.28259	38.80542	817.00220	-376.58212	-40.37684	556.75555	-348.86670	115.41790	562.13080	-367.62387	62.66168	551.58557	529.82477	202.92952	557.32489	514.10773	
3511	35.100	-185.13896	29.66710	-141.14110	313.36945	28.51793	-118.85278	-89.87469	12.28302	193.79285	240.43977	6.10865	300.34836	37.54351	817.12122	-376.36441	-41.54314	556.86328	-348.66449	113.97707	562.26038	-367.64929	62.09887	551.56976	529.92487	202.26500	557.09674	513.95325	
3512	35.110	-185.95174	29.63201	-141.22417	312.79196	28.55860	-118.80174	-90.54293	12.35317	193.58882	239.75174	6.01421	300.23178	36.84297	817.15283	-376.07632	-42.59007	557.01740	-348.04462	113.17244	562.38007	-367.51508	61.67081	551.22949	529.88495	201.81876	556.99500	514.26172	
3513	35.120	-186.78960	29.71660	-141.14833	312.05209	28.44687	-118.91703	-91.39697	12.50953	193.53197	238.35693	5.80877	300.07538	35.41898	817.56360	-376.11182	-43.12167	557.06146	-347.83951	111.77341	562.60040	-367.58997	61.23032	551.01233	529.98999	201.52034	556.88348	514.39038	
3514	35.130	-187.09558	29.57400	-141.09726	311.47995	28.47461	-118.78268	-92.19566	12.39454	193.67256	238.56354	6.35345	300.34454	34.32647	817.71313	-375.81329	-44.38203	557.26752	-347.48206	110.58727	562.72992	-367.53928	60.98125	550.84204	530.04352	201.11844	556.64941	514.39020	
3515	35.140	-187.98955	29.66394	-141.03648	310.51083	28.49122	-118.84610	-92.88555	12.37855	193.71846	237.78497	6.29362	300.26804	33.26414	817.81360	-375.68039	-45.57767	557.47870	-347.32870	109.67342	562.94348	-367.52505	60.68327	550.72107	530.08325	200.89885	556.59308	514.40112	
3516	35.150	-188.84882	29.53531	-140.95633	309.69669	28.53528	-119.08865	-93.56879	12.49148	193.69861	236.40436	5.98057	299.94778	32.20217	817.84943	-375.47034	-46.98619	557.77594	-347.91739	108.70860	562.94727	-367.34464	60.21383	550.61560	530.10358	200.30565	556.51630	514.30292	
3517	35.160	-189.40627	29.33759	-141.07420	309.32391	28.48341	-119.20022	-94.22894	12.64267	193.70523	235.42807	5.89838	299.75937	31.24370	817.78241	-375.09726	-48.33119	557.82776	-347.64490	107.61794	563.04626	-367.18259	59.81886	550.57397	530.18665	199.84964	556.40601	514.16962	
3518	35.170	-189.88156	29.14182	-140.97250	308.71964	28.32837	-119.35977	-94.77505	12.66019	193.78279	234.79060	5.86822	299.74026	29.87662	817.81354	-375.07788	-48.74236	557.60425	-347.05447	106.30808	563.04260	-367.45557	59.29334	550.50342	530.35834	199.51726	556.32916	514.16833	
3519	35.180	-190.83917	29.41351	-140.98711	307.64142	28.24612	-119.52785	-95.39807	12.60440	193.85565	234.42654	6.00212	299.78763	29.15118	818.02881	-375.12860	-49.80040	557.73413	-347.08139	105.43704	563.14874	-367.38922	58.69978	550.48297	530.43567	199.12178	556.18115	514.04572	
3520	35.190	-191.52179	29.27916	-141.17226	307.10400	28.34061	-119.46210	-96.07628	12.76164	193.88472	233.76550	6.19209	299.90393	27.69271	818.29700	-374.94858	-50.97107	557.84570	-346.74237	104.48565	563.21106	-367.35690	58.43634	550.38135	530.48022	198.78488	556.14252	514.16309	
3521	35.200	-192.00307	29.19683	-141.09962	306.76013	28.35874	-119.45938	-96.80492	12.68189	193.81355	232.72443	6.13993	299.64716	26.62783	818.31836	-374.64069	-51.65134	557.82147	-346.60843	103.10818	563.40033	-367.24408	57.84396	550.21429	530.51031	198.22031	555.94122	514.13019	
3522	35.210	-192.89836	29.19039	-141.08313	305.98288	28.17887	-119.51675	-97.42664	12.74435	193.69630	232.21884	6.16076	299.65375	25.75305	818.31396	-374.44855	-53.04862	557.86633	-346.54703	102.52651	563.48376	-367.01099	57.44551	550.11987	530.54279	197.71539	555.86536	513.98053	
3523	35.220	-193.31677	28.87674	-141.01047	305.24023	28.18484	-119.67365	-98.10787	12.75393	193.57813	231.95793	6.34758	299.55945	24.92634	818.34515	-374.35526	-54.34146	558.19098	-346.83408	101.43781	563.54553	-367.10492	57.10336	550.02264	530.51337	197.24361	555.77747	513.95001	
3524	35.230	-193.64914	28.76704	-141.05609	304.43701	28.17427	-120.01288	-98.71903	12.66563	193.53442	231.33546	6.48607	299.46286	23.55551	818.41949	-374.54016	-55.07499	558.13977	-346.36810	100.15026	563.58978	-367.16422	56.66113	549.92297	530.60419	196.91464	555.72571	513.83801	
3525	35.240	-194.43546	28.75615	-141.20558	303.96906	28.23886	-120.06907	-99.46946	13.08994	193.57256	230.50096	6.46750	299.53592	22.40224	818.54260	-374.51364	-55.89408	558.25897	-346.24258	99.22508	563.62036	-367.19492	56.20206	549.94611	530.64117	196.39659	555.74286	513.74939	
3526	35.250	-195.16460	28.84888	-141.16910	303.67288	28.27514	-120.09705	-100.32264	13.27439	193.50128	229.88144	6.53302	299.54727	21.53822	818.62250	-374.35599	-56.74855	558.09802	-345.90244	98.43200	563.60681	-367.23306	55.66636	549.92517	530.69684	195.89790	555.68152	513.74634	
3527	35.260	-195.62053	28.64427	-141.17758	302.86252	28.02460	-120.25630	-100.57766	13.17062	193.49413	229.43307	6.78424	299.39099	20.46843	818.80939	-374.12317	-58.00914	558.34180	-345.78833	97.41528	563.80908	-367.44449	55.21858	549.90961	530.63916	195.49290	555.52905	513.62964	
3528	35.270	-196.30513	28.57936	-141.20270	302.23212	27.89134	-120.24928	-100.78735	13.19046	193.47643	229.00470	6.93591	299.22113	19.58024	818.72894	-374.09784	-58.94386	558.22943	-345.89658	96.13689	563.74011	-367.06918	54.80289	549.86096	530.64307	194.65405	555.45337	513.56226	
3529	35.280	-196.94322	28.52006	-141.25801	301.78433	27.91425	-120.40096	-101.69467	13.45267	193.49112	228.47954	7.05955	299.18237	18.72941	818.87604	-374.01709	-60.18508	558.35291	-345.75546	95.24980	563.78308	-367.16855	54.38575	549.68921	530.70740	194.31133	555.33661	513.53125	
3530	35.290	-197.38243	28.39112	-141.34689	301.29419	27.82753	-120.52692	-102.44936	13.53412	193.40007	227.79066	7.13143	298.98840	17.62630	819.02032	-374.11423	-60.91436	558.48767	-345.66205	94.38475	563.84467	-367.17093	53.89989	549.53638	530.73016	193.93715	555.36810	513.51184	
3531	35.300	-197.79996	28.25389	-141.39758	300.67987	27.80614	-120.45765	-102.72561	13.36302	193.46567	227.24307	7.26011	298.94815	16.46352	818.95538	-373.86795	-61.85960	558.55591	-345.59064	93.52142	563.90363	-367.20245	53.48930	549.44781	530.74774	193.58804	555.33813	513.45581	
3532	35.310	-198.08557	27.98137	-141.34334	300.23026	27.77674	-120.37881	-102.94312	13.30770	193.48686	226.89304	7.45515	298.96661	15.54856	818.99139	-373.77805	-62.69896	558.39941	-345.43002	92.33613	563.88971	-367.08548	53.07222	549.37354	530.74957	193.28267	555.35638	513.41742	
3533	35.320	-198.59357	27.90443	-141.25943	299.91232	27.81822	-120.36900	-103.57061	13.47662	193.48119	226.67015	7.64578	298.93875	14.76805	818.86102	-373.78098	-63.99463	558.44897	-345.29105	90.51469	564.10748	-367.25522	52.56765	549.33929	530.74011	192.50047	555.35211	513.28235	
3534	35.330	-199.44527	27.76505	-141.25414	299.36557	27.80396	-120.62731	-104.31469	13.74579	193.39680	226.11107	7.80835	298.89551	13.34904	819.03241	-373.82138	-64.71342	558.42938	-345.42340	89.60817	564.18811	-367.35846	52.00415	549.32227	530.78864	192.05013	555.27704	513.17010	
3535	35.340	-199.62502	27.47555	-141.22780	298.86832	27.80931	-120.85201	-104.90144	13.90450	193.20451	225.69620	7.92701	298.84048	12.37427	819.16229	-373.70105	-65.77712	558.58948	-345.36139	88.55856	564.26691	-367.41278	51.58950	549.23578	530.85583	191.62938	555.14740	513.23285	
3536	35.350	-199.90948	27.40392	-141.33614	298.49567	27.79807	-120.93369	-105.14115	13.99261	193.18140	225.12219	7.96655	298.61234	11.49689	819.28418	-373.41577	-66.59915	558.75067	-345.19907	87.54086	564.43530	-367.29703	51.14793	549.14929	530.82880	190.99800	555.12848	513.18018	
3537	35.360	-200.08955	27.31805	-141.41216	298.18225	27.69877	-120.97701	-105.57708	14.21480	193.09998	224.72810	7.97340	298.51709	10.75321	819.37085	-373.46933	-67.51342	558.79559	-345.20261	86.85194	564.52228	-367.26880	50.76719	549.04932	530.82086	190.60303	555.13428	513.05701	
3538	35.370	-200.48959	27.35351	-141.46942	297.92358	27.62631	-121.18572	-105.20612	13.91067	193.07909	224.42883	8.06210	298.50320	9.61556	819.31122	-373.36472	-68.22493	558.74738	-345.17670	86.05384	564.59320	-367.28287	50.38007	548.96161	530.84521	189.91492	555.02173	512.90588	
3539	35.380	-200.98355	27.31987	-141.70241	297.70081	27.45152	-121.37178	-105.26580	13.90558	193.00523	224.33977	8.26672	298.48642	8.69260	819.42950	-373.18491	-69.30288	558.75684	-345.00781	85.05270	564.75647	-367.83374	49.67386	548.88641	530.80084	189.51247	554.97357	512.82745	
